<svg version="1.1" width="100" height="100" xmlns="http://www.w3.org/2000/svg">
    <path transform="scale(0.825) translate(0 16.25)" d="M62.5,50 A15.625,15.625 0 1,1 75,75 L25,75 A18.75,18.75 0 0,1 25,37.5 A18.75,18.75 0 0,0 28.193,37.774 A25,25 0 0,1 73.936,42.748" vector-effect="non-scaling-stroke" style="stroke: #666; fill: #fff; stroke-width: 5px;" />
    <path transform="scale(0.9125) translate(12.5 25)" d="M62.5,50 A15.625,15.625 0 1,1 75,75 L25,75 A18.75,18.75 0 0,1 25,37.5 A18.75,18.75 0 0,0 28.193,37.774 A25,25 0 0,1 73.936,42.748" vector-effect="non-scaling-stroke" style="stroke: #666; fill: #fff; stroke-width: 5px;" />
</svg>
