<svg version="1.1" width="100" height="100" xmlns="http://www.w3.org/2000/svg">
    <g transform="scale(1) translate(0 0)">
        <path d="M62.5,50 A15.625,15.625 0 1,1 75,75 L25,75 A18.75,18.75 0 0,1 25,37.5 A18.75,18.75 0 0,0 28.193,37.774 A25,25 0 0,1 73.936,42.748" vector-effect="non-scaling-stroke" style="stroke: #666; fill: #fff; stroke-width: 5px;" />
        <g transform="skewX(-16.25) translate(52.5 81.25)" stroke="#666" fill="none" stroke-width="5">
            <line x1="0" y1="3.125" x2="0" y2="19.375" vector-effect="non-scaling-stroke" />
            <line x1="12.5" y1="0" x2="12.5" y2="16.25" vector-effect="non-scaling-stroke" />
            <line x1="25" y1="3.125" x2="25" y2="19.375" vector-effect="non-scaling-stroke" />
            <line x1="37.5" y1="0" x2="37.5" y2="16.25" vector-effect="non-scaling-stroke" />
        </g>
        <path d="M50,50 L43.75,75 L46.875,75 L37.5,100 L62.5,68.25 L56.25,68.25 L68.25,50 L50,50 L43.75,75" stroke="#666" fill="#ff0" transform="translate(-6.25 -3.125)" stroke-width="5" vector-effect="non-scaling-stroke" />
    </g>
</svg>
